<svg width="364" height="95" viewBox="0 0 364 95" fill="none" xmlns="http://www.w3.org/2000/svg">
<mask id="mask0_78_577" style="mask-type:alpha" maskUnits="userSpaceOnUse" x="0" y="0" width="364" height="95">
<rect width="364" height="95" rx="20" fill="#D9D9D9"/>
</mask>
<g mask="url(#mask0_78_577)">
<rect x="1" width="385" height="95" rx="20" fill="#FFCFCF"/>
<path d="M0.5 1C18 36.5 79.4 98.1 185 60.5C290.6 22.9 345.667 73.8333 360 104" stroke="white" stroke-opacity="0.4" stroke-width="2"/>
<path d="M66 -4C83.5 31.5 144.9 93.1 250.5 55.5C356.1 17.9 411.167 68.8333 425.5 99" stroke="white" stroke-opacity="0.4" stroke-width="2"/>
</g>
<path d="M23.162 78V68.2H25.43V76.152H30.344V78H23.162ZM33.6972 72.148H38.4152V73.912H33.6972V72.148ZM33.8652 76.18H39.1992V78H31.6112V68.2H39.0172V70.02H33.8652V76.18ZM43.8071 78L39.5791 68.2H42.0291L45.7251 76.88H44.2831L48.0351 68.2H50.2891L46.0471 78H43.8071ZM53.1933 72.148H57.9113V73.912H53.1933V72.148ZM53.3613 76.18H58.6953V78H51.1073V68.2H58.5133V70.02H53.3613V76.18ZM60.4999 78V68.2H62.7679V76.152H67.6819V78H60.4999ZM75.476 78.168C74.7946 78.168 74.118 78.0793 73.446 77.902C72.774 77.7153 72.2046 77.454 71.738 77.118L72.62 75.382C72.9933 75.6527 73.4273 75.8673 73.922 76.026C74.4166 76.1847 74.916 76.264 75.42 76.264C75.9893 76.264 76.4373 76.152 76.764 75.928C77.0906 75.704 77.254 75.396 77.254 75.004C77.254 74.6307 77.1093 74.3367 76.82 74.122C76.5306 73.9073 76.064 73.8 75.42 73.8H74.384V72.302L77.114 69.208L77.366 70.02H72.228V68.2H79.088V69.67L76.372 72.764L75.224 72.106H75.882C77.086 72.106 77.996 72.3767 78.612 72.918C79.228 73.4593 79.536 74.1547 79.536 75.004C79.536 75.5547 79.3913 76.0727 79.102 76.558C78.8126 77.034 78.3693 77.4213 77.772 77.72C77.1746 78.0187 76.4093 78.168 75.476 78.168ZM86.774 80.716C86.214 79.8667 85.78 78.8867 85.472 77.776C85.1733 76.656 85.024 75.452 85.024 74.164C85.024 72.876 85.1733 71.672 85.472 70.552C85.78 69.4227 86.214 68.4427 86.774 67.612H88.86C88.272 68.6667 87.8426 69.7307 87.572 70.804C87.3013 71.868 87.166 72.988 87.166 74.164C87.166 75.34 87.3013 76.4647 87.572 77.538C87.8426 78.602 88.272 79.6613 88.86 80.716H86.774ZM91.2006 78V69.04L92.1806 70.02H89.2406V68.2H93.4686V78H91.2006ZM99.231 78.168C98.4097 78.168 97.691 78.0467 97.075 77.804C96.459 77.552 95.9783 77.202 95.633 76.754C95.2877 76.2967 95.115 75.7647 95.115 75.158C95.115 74.5513 95.283 74.038 95.619 73.618C95.9643 73.1887 96.445 72.8667 97.061 72.652C97.677 72.428 98.4003 72.316 99.231 72.316C100.071 72.316 100.799 72.428 101.415 72.652C102.04 72.8667 102.521 73.1887 102.857 73.618C103.202 74.038 103.375 74.5513 103.375 75.158C103.375 75.7647 103.202 76.2967 102.857 76.754C102.512 77.202 102.026 77.552 101.401 77.804C100.785 78.0467 100.062 78.168 99.231 78.168ZM99.231 76.502C99.8003 76.502 100.248 76.376 100.575 76.124C100.911 75.872 101.079 75.5267 101.079 75.088C101.079 74.6493 100.911 74.3087 100.575 74.066C100.248 73.814 99.8003 73.688 99.231 73.688C98.671 73.688 98.2277 73.814 97.901 74.066C97.5743 74.3087 97.411 74.6493 97.411 75.088C97.411 75.5267 97.5743 75.872 97.901 76.124C98.2277 76.376 98.671 76.502 99.231 76.502ZM99.231 73.464C98.475 73.464 97.8123 73.3613 97.243 73.156C96.683 72.9507 96.2443 72.652 95.927 72.26C95.619 71.8587 95.465 71.3827 95.465 70.832C95.465 70.2533 95.6237 69.7587 95.941 69.348C96.2583 68.928 96.7017 68.606 97.271 68.382C97.8403 68.1487 98.4937 68.032 99.231 68.032C99.987 68.032 100.645 68.1487 101.205 68.382C101.774 68.606 102.218 68.928 102.535 69.348C102.862 69.7587 103.025 70.2533 103.025 70.832C103.025 71.3827 102.866 71.8587 102.549 72.26C102.241 72.652 101.802 72.9507 101.233 73.156C100.664 73.3613 99.9963 73.464 99.231 73.464ZM99.231 72.134C99.707 72.134 100.08 72.0267 100.351 71.812C100.631 71.5973 100.771 71.3033 100.771 70.93C100.771 70.538 100.626 70.2347 100.337 70.02C100.057 69.8053 99.6883 69.698 99.231 69.698C98.783 69.698 98.419 69.8053 98.139 70.02C97.859 70.2347 97.719 70.538 97.719 70.93C97.719 71.3033 97.8543 71.5973 98.125 71.812C98.3957 72.0267 98.7643 72.134 99.231 72.134ZM105.838 78.112C105.465 78.112 105.143 77.986 104.872 77.734C104.611 77.4727 104.48 77.1413 104.48 76.74C104.48 76.3387 104.611 76.0167 104.872 75.774C105.143 75.522 105.465 75.396 105.838 75.396C106.221 75.396 106.543 75.522 106.804 75.774C107.065 76.0167 107.196 76.3387 107.196 76.74C107.196 77.1413 107.065 77.4727 106.804 77.734C106.543 77.986 106.221 78.112 105.838 78.112ZM112.418 78.168C111.522 78.168 110.743 77.9813 110.08 77.608C109.427 77.2347 108.923 76.6887 108.568 75.97C108.214 75.2513 108.036 74.3647 108.036 73.31C108.036 72.1807 108.246 71.224 108.666 70.44C109.096 69.656 109.684 69.0587 110.43 68.648C111.186 68.2373 112.054 68.032 113.034 68.032C113.557 68.032 114.056 68.088 114.532 68.2C115.008 68.312 115.419 68.48 115.764 68.704L114.924 70.37C114.654 70.1833 114.364 70.0573 114.056 69.992C113.748 69.9173 113.426 69.88 113.09 69.88C112.241 69.88 111.569 70.1367 111.074 70.65C110.58 71.1633 110.332 71.924 110.332 72.932C110.332 73.1 110.332 73.2867 110.332 73.492C110.342 73.6973 110.37 73.9027 110.416 74.108L109.786 73.52C109.964 73.156 110.192 72.8527 110.472 72.61C110.752 72.358 111.084 72.1713 111.466 72.05C111.858 71.9193 112.288 71.854 112.754 71.854C113.389 71.854 113.958 71.98 114.462 72.232C114.966 72.484 115.368 72.8387 115.666 73.296C115.974 73.7533 116.128 74.29 116.128 74.906C116.128 75.5687 115.96 76.1473 115.624 76.642C115.298 77.1273 114.854 77.5053 114.294 77.776C113.744 78.0373 113.118 78.168 112.418 78.168ZM112.292 76.474C112.61 76.474 112.89 76.418 113.132 76.306C113.384 76.1847 113.58 76.012 113.72 75.788C113.86 75.564 113.93 75.3073 113.93 75.018C113.93 74.57 113.776 74.2153 113.468 73.954C113.17 73.6833 112.768 73.548 112.264 73.548C111.928 73.548 111.634 73.6133 111.382 73.744C111.13 73.8653 110.93 74.038 110.78 74.262C110.64 74.4767 110.57 74.7287 110.57 75.018C110.57 75.298 110.64 75.55 110.78 75.774C110.92 75.9887 111.116 76.1613 111.368 76.292C111.62 76.4133 111.928 76.474 112.292 76.474ZM119.218 76.46L119.274 73.8L122.788 70.468H125.392L122.018 73.898L120.884 74.822L119.218 76.46ZM117.412 78V67.612H119.596V78H117.412ZM123.026 78L120.478 74.836L121.85 73.142L125.672 78H123.026ZM125.184 79.4L129.804 66.212H131.75L127.13 79.4H125.184ZM131.591 78V76.53L135.371 72.96C135.67 72.6893 135.889 72.4467 136.029 72.232C136.169 72.0173 136.262 71.8213 136.309 71.644C136.365 71.4667 136.393 71.3033 136.393 71.154C136.393 70.762 136.258 70.4633 135.987 70.258C135.726 70.0433 135.338 69.936 134.825 69.936C134.414 69.936 134.032 70.0153 133.677 70.174C133.332 70.3327 133.038 70.58 132.795 70.916L131.143 69.852C131.516 69.292 132.039 68.8487 132.711 68.522C133.383 68.1953 134.158 68.032 135.035 68.032C135.763 68.032 136.398 68.1533 136.939 68.396C137.49 68.6293 137.914 68.9607 138.213 69.39C138.521 69.8193 138.675 70.3327 138.675 70.93C138.675 71.2473 138.633 71.5647 138.549 71.882C138.474 72.19 138.316 72.5167 138.073 72.862C137.84 73.2073 137.494 73.5947 137.037 74.024L133.901 76.978L133.467 76.152H138.997V78H131.591ZM143.265 78.168C142.583 78.168 141.907 78.0793 141.235 77.902C140.572 77.7153 140.003 77.454 139.527 77.118L140.423 75.382C140.796 75.6527 141.225 75.8673 141.711 76.026C142.205 76.1847 142.705 76.264 143.209 76.264C143.778 76.264 144.226 76.152 144.553 75.928C144.879 75.704 145.043 75.3913 145.043 74.99C145.043 74.738 144.977 74.514 144.847 74.318C144.716 74.122 144.483 73.9727 144.147 73.87C143.82 73.7673 143.358 73.716 142.761 73.716H140.255L140.759 68.2H146.737V70.02H141.571L142.747 68.984L142.397 72.918L141.221 71.882H143.293C144.263 71.882 145.043 72.0173 145.631 72.288C146.228 72.5493 146.662 72.9087 146.933 73.366C147.203 73.8233 147.339 74.3413 147.339 74.92C147.339 75.4987 147.194 76.0353 146.905 76.53C146.615 77.0153 146.167 77.412 145.561 77.72C144.963 78.0187 144.198 78.168 143.265 78.168ZM150.527 76.46L150.583 73.8L154.097 70.468H156.701L153.327 73.898L152.193 74.822L150.527 76.46ZM148.721 78V67.612H150.905V78H148.721ZM154.335 78L151.787 74.836L153.159 73.142L156.981 78H154.335ZM159.181 80.716H157.095C157.702 79.6613 158.136 78.602 158.397 77.538C158.668 76.4647 158.803 75.34 158.803 74.164C158.803 72.988 158.668 71.868 158.397 70.804C158.136 69.7307 157.702 68.6667 157.095 67.612H159.181C159.76 68.4427 160.198 69.4227 160.497 70.552C160.796 71.672 160.945 72.876 160.945 74.164C160.945 75.452 160.796 76.656 160.497 77.776C160.198 78.8867 159.76 79.8667 159.181 80.716Z" fill="#EE6969"/>
<path d="M27.952 55.154C26.8227 55.154 25.8107 54.9707 24.916 54.604C24.0213 54.2373 23.3027 53.6947 22.76 52.976C22.232 52.2573 21.9533 51.392 21.924 50.38H25.928C25.9867 50.952 26.1847 51.392 26.522 51.7C26.8593 51.9933 27.2993 52.14 27.842 52.14C28.3993 52.14 28.8393 52.0153 29.162 51.766C29.4847 51.502 29.646 51.1427 29.646 50.688C29.646 50.3067 29.514 49.9913 29.25 49.742C29.0007 49.4927 28.6853 49.2873 28.304 49.126C27.9373 48.9647 27.4093 48.7813 26.72 48.576C25.7227 48.268 24.9087 47.96 24.278 47.652C23.6473 47.344 23.1047 46.8893 22.65 46.288C22.1953 45.6867 21.968 44.902 21.968 43.934C21.968 42.4967 22.4887 41.3747 23.53 40.568C24.5713 39.7467 25.928 39.336 27.6 39.336C29.3013 39.336 30.6727 39.7467 31.714 40.568C32.7553 41.3747 33.3127 42.504 33.386 43.956H29.316C29.2867 43.4573 29.1033 43.0687 28.766 42.79C28.4287 42.4967 27.996 42.35 27.468 42.35C27.0133 42.35 26.6467 42.4747 26.368 42.724C26.0893 42.9587 25.95 43.3033 25.95 43.758C25.95 44.2567 26.1847 44.6453 26.654 44.924C27.1233 45.2027 27.8567 45.5033 28.854 45.826C29.8513 46.1633 30.658 46.486 31.274 46.794C31.9047 47.102 32.4473 47.5493 32.902 48.136C33.3567 48.7227 33.584 49.478 33.584 50.402C33.584 51.282 33.3567 52.0813 32.902 52.8C32.462 53.5187 31.8167 54.0907 30.966 54.516C30.1153 54.9413 29.1107 55.154 27.952 55.154ZM41.4872 55.176C40.2845 55.176 39.1992 54.9193 38.2312 54.406C37.2778 53.8927 36.5225 53.1593 35.9652 52.206C35.4225 51.2527 35.1512 50.138 35.1512 48.862C35.1512 47.6007 35.4298 46.4933 35.9872 45.54C36.5445 44.572 37.3072 43.8313 38.2752 43.318C39.2432 42.8047 40.3285 42.548 41.5312 42.548C42.7338 42.548 43.8192 42.8047 44.7872 43.318C45.7552 43.8313 46.5178 44.572 47.0752 45.54C47.6325 46.4933 47.9112 47.6007 47.9112 48.862C47.9112 50.1233 47.6252 51.238 47.0532 52.206C46.4958 53.1593 45.7258 53.8927 44.7432 54.406C43.7752 54.9193 42.6898 55.176 41.4872 55.176ZM41.4872 51.92C42.2058 51.92 42.8145 51.656 43.3132 51.128C43.8265 50.6 44.0832 49.8447 44.0832 48.862C44.0832 47.8793 43.8338 47.124 43.3352 46.596C42.8512 46.068 42.2498 45.804 41.5312 45.804C40.7978 45.804 40.1892 46.068 39.7052 46.596C39.2212 47.1093 38.9792 47.8647 38.9792 48.862C38.9792 49.8447 39.2138 50.6 39.6832 51.128C40.1672 51.656 40.7685 51.92 41.4872 51.92ZM49.159 48.862C49.159 47.586 49.4156 46.4713 49.929 45.518C50.457 44.5647 51.183 43.8313 52.107 43.318C53.0456 42.8047 54.1163 42.548 55.319 42.548C56.859 42.548 58.1423 42.9513 59.169 43.758C60.2103 44.5647 60.8923 45.7013 61.215 47.168H57.211C56.8736 46.2293 56.221 45.76 55.253 45.76C54.5636 45.76 54.0136 46.0313 53.603 46.574C53.1923 47.102 52.987 47.8647 52.987 48.862C52.987 49.8593 53.1923 50.6293 53.603 51.172C54.0136 51.7 54.5636 51.964 55.253 51.964C56.221 51.964 56.8736 51.4947 57.211 50.556H61.215C60.8923 51.9933 60.2103 53.1227 59.169 53.944C58.1276 54.7653 56.8443 55.176 55.319 55.176C54.1163 55.176 53.0456 54.9193 52.107 54.406C51.183 53.8927 50.457 53.1593 49.929 52.206C49.4156 51.2527 49.159 50.138 49.159 48.862ZM65.1193 41.448C64.4593 41.448 63.9166 41.2573 63.4913 40.876C63.0806 40.48 62.8753 39.996 62.8753 39.424C62.8753 38.8373 63.0806 38.3533 63.4913 37.972C63.9166 37.576 64.4593 37.378 65.1193 37.378C65.7646 37.378 66.2926 37.576 66.7033 37.972C67.1286 38.3533 67.3413 38.8373 67.3413 39.424C67.3413 39.996 67.1286 40.48 66.7033 40.876C66.2926 41.2573 65.7646 41.448 65.1193 41.448ZM66.9893 42.724V55H63.2273V42.724H66.9893ZM68.9676 48.84C68.9676 47.5787 69.2022 46.4713 69.6716 45.518C70.1556 44.5647 70.8082 43.8313 71.6296 43.318C72.4509 42.8047 73.3676 42.548 74.3796 42.548C75.2449 42.548 76.0002 42.724 76.6456 43.076C77.3056 43.428 77.8116 43.89 78.1636 44.462V42.724H81.9256V55H78.1636V53.262C77.7969 53.834 77.2836 54.296 76.6236 54.648C75.9782 55 75.2229 55.176 74.3576 55.176C73.3602 55.176 72.4509 54.9193 71.6296 54.406C70.8082 53.878 70.1556 53.1373 69.6716 52.184C69.2022 51.216 68.9676 50.1013 68.9676 48.84ZM78.1636 48.862C78.1636 47.9233 77.8996 47.1827 77.3716 46.64C76.8582 46.0973 76.2276 45.826 75.4796 45.826C74.7316 45.826 74.0936 46.0973 73.5656 46.64C73.0522 47.168 72.7956 47.9013 72.7956 48.84C72.7956 49.7787 73.0522 50.5267 73.5656 51.084C74.0936 51.6267 74.7316 51.898 75.4796 51.898C76.2276 51.898 76.8582 51.6267 77.3716 51.084C77.8996 50.5413 78.1636 49.8007 78.1636 48.862ZM88.4092 38.72V55H84.6472V38.72H88.4092ZM95.1596 47.256C95.1596 45.7307 95.4896 44.374 96.1496 43.186C96.8096 41.9833 97.7263 41.052 98.8996 40.392C100.088 39.7173 101.43 39.38 102.926 39.38C104.759 39.38 106.328 39.864 107.634 40.832C108.939 41.8 109.812 43.12 110.252 44.792H106.116C105.808 44.1467 105.368 43.6553 104.796 43.318C104.238 42.9807 103.6 42.812 102.882 42.812C101.723 42.812 100.784 43.2153 100.066 44.022C99.3469 44.8287 98.9876 45.9067 98.9876 47.256C98.9876 48.6053 99.3469 49.6833 100.066 50.49C100.784 51.2967 101.723 51.7 102.882 51.7C103.6 51.7 104.238 51.5313 104.796 51.194C105.368 50.8567 105.808 50.3653 106.116 49.72H110.252C109.812 51.392 108.939 52.712 107.634 53.68C106.328 54.6333 104.759 55.11 102.926 55.11C101.43 55.11 100.088 54.78 98.8996 54.12C97.7263 53.4453 96.8096 52.514 96.1496 51.326C95.4896 50.138 95.1596 48.7813 95.1596 47.256ZM120.101 42.592C121.509 42.592 122.639 43.0613 123.489 44C124.34 44.924 124.765 46.2 124.765 47.828V55H121.025V48.334C121.025 47.5127 120.813 46.8747 120.387 46.42C119.962 45.9653 119.39 45.738 118.671 45.738C117.953 45.738 117.381 45.9653 116.955 46.42C116.53 46.8747 116.317 47.5127 116.317 48.334V55H112.555V38.72H116.317V44.374C116.699 43.8313 117.219 43.3987 117.879 43.076C118.539 42.7533 119.28 42.592 120.101 42.592ZM126.632 48.84C126.632 47.5787 126.866 46.4713 127.336 45.518C127.82 44.5647 128.472 43.8313 129.294 43.318C130.115 42.8047 131.032 42.548 132.044 42.548C132.909 42.548 133.664 42.724 134.31 43.076C134.97 43.428 135.476 43.89 135.828 44.462V42.724H139.59V55H135.828V53.262C135.461 53.834 134.948 54.296 134.288 54.648C133.642 55 132.887 55.176 132.022 55.176C131.024 55.176 130.115 54.9193 129.294 54.406C128.472 53.878 127.82 53.1373 127.336 52.184C126.866 51.216 126.632 50.1013 126.632 48.84ZM135.828 48.862C135.828 47.9233 135.564 47.1827 135.036 46.64C134.522 46.0973 133.892 45.826 133.144 45.826C132.396 45.826 131.758 46.0973 131.23 46.64C130.716 47.168 130.46 47.9013 130.46 48.84C130.46 49.7787 130.716 50.5267 131.23 51.084C131.758 51.6267 132.396 51.898 133.144 51.898C133.892 51.898 134.522 51.6267 135.036 51.084C135.564 50.5413 135.828 49.8007 135.828 48.862ZM149.791 42.592C151.229 42.592 152.373 43.0613 153.223 44C154.089 44.924 154.521 46.2 154.521 47.828V55H150.781V48.334C150.781 47.5127 150.569 46.8747 150.143 46.42C149.718 45.9653 149.146 45.738 148.427 45.738C147.709 45.738 147.137 45.9653 146.711 46.42C146.286 46.8747 146.073 47.5127 146.073 48.334V55H142.311V42.724H146.073V44.352C146.455 43.8093 146.968 43.384 147.613 43.076C148.259 42.7533 148.985 42.592 149.791 42.592ZM161.799 42.548C162.665 42.548 163.42 42.724 164.065 43.076C164.725 43.428 165.231 43.89 165.583 44.462V42.724H169.345V54.978C169.345 56.1073 169.118 57.1267 168.663 58.036C168.223 58.96 167.541 59.6933 166.617 60.236C165.708 60.7787 164.571 61.05 163.207 61.05C161.389 61.05 159.915 60.6173 158.785 59.752C157.656 58.9013 157.011 57.7427 156.849 56.276H160.567C160.685 56.7453 160.963 57.112 161.403 57.376C161.843 57.6547 162.386 57.794 163.031 57.794C163.809 57.794 164.425 57.5667 164.879 57.112C165.349 56.672 165.583 55.9607 165.583 54.978V53.24C165.217 53.812 164.711 54.2813 164.065 54.648C163.42 55 162.665 55.176 161.799 55.176C160.787 55.176 159.871 54.9193 159.049 54.406C158.228 53.878 157.575 53.1373 157.091 52.184C156.622 51.216 156.387 50.1013 156.387 48.84C156.387 47.5787 156.622 46.4713 157.091 45.518C157.575 44.5647 158.228 43.8313 159.049 43.318C159.871 42.8047 160.787 42.548 161.799 42.548ZM165.583 48.862C165.583 47.9233 165.319 47.1827 164.791 46.64C164.278 46.0973 163.647 45.826 162.899 45.826C162.151 45.826 161.513 46.0973 160.985 46.64C160.472 47.168 160.215 47.9013 160.215 48.84C160.215 49.7787 160.472 50.5267 160.985 51.084C161.513 51.6267 162.151 51.898 162.899 51.898C163.647 51.898 164.278 51.6267 164.791 51.084C165.319 50.5413 165.583 49.8007 165.583 48.862ZM183.639 48.664C183.639 49.016 183.617 49.3827 183.573 49.764H175.059C175.118 50.5267 175.36 51.1133 175.785 51.524C176.225 51.92 176.76 52.118 177.391 52.118C178.33 52.118 178.982 51.722 179.349 50.93H183.353C183.148 51.7367 182.774 52.4627 182.231 53.108C181.703 53.7533 181.036 54.2593 180.229 54.626C179.422 54.9927 178.52 55.176 177.523 55.176C176.32 55.176 175.25 54.9193 174.311 54.406C173.372 53.8927 172.639 53.1593 172.111 52.206C171.583 51.2527 171.319 50.138 171.319 48.862C171.319 47.586 171.576 46.4713 172.089 45.518C172.617 44.5647 173.35 43.8313 174.289 43.318C175.228 42.8047 176.306 42.548 177.523 42.548C178.711 42.548 179.767 42.7973 180.691 43.296C181.615 43.7947 182.334 44.506 182.847 45.43C183.375 46.354 183.639 47.432 183.639 48.664ZM179.789 47.674C179.789 47.0287 179.569 46.5153 179.129 46.134C178.689 45.7527 178.139 45.562 177.479 45.562C176.848 45.562 176.313 45.7453 175.873 46.112C175.448 46.4787 175.184 46.9993 175.081 47.674H179.789ZM194.048 52.096H198.976V55H190.286V39.556H194.048V52.096ZM212.342 48.664C212.342 49.016 212.32 49.3827 212.276 49.764H203.762C203.821 50.5267 204.063 51.1133 204.488 51.524C204.928 51.92 205.464 52.118 206.094 52.118C207.033 52.118 207.686 51.722 208.052 50.93H212.056C211.851 51.7367 211.477 52.4627 210.934 53.108C210.406 53.7533 209.739 54.2593 208.932 54.626C208.126 54.9927 207.224 55.176 206.226 55.176C205.024 55.176 203.953 54.9193 203.014 54.406C202.076 53.8927 201.342 53.1593 200.814 52.206C200.286 51.2527 200.022 50.138 200.022 48.862C200.022 47.586 200.279 46.4713 200.792 45.518C201.32 44.5647 202.054 43.8313 202.992 43.318C203.931 42.8047 205.009 42.548 206.226 42.548C207.414 42.548 208.47 42.7973 209.394 43.296C210.318 43.7947 211.037 44.506 211.55 45.43C212.078 46.354 212.342 47.432 212.342 48.664ZM208.492 47.674C208.492 47.0287 208.272 46.5153 207.832 46.134C207.392 45.7527 206.842 45.562 206.182 45.562C205.552 45.562 205.016 45.7453 204.576 46.112C204.151 46.4787 203.887 46.9993 203.784 47.674H208.492ZM213.579 48.84C213.579 47.5787 213.814 46.4713 214.283 45.518C214.767 44.5647 215.42 43.8313 216.241 43.318C217.062 42.8047 217.979 42.548 218.991 42.548C219.856 42.548 220.612 42.724 221.257 43.076C221.917 43.428 222.423 43.89 222.775 44.462V42.724H226.537V55H222.775V53.262C222.408 53.834 221.895 54.296 221.235 54.648C220.59 55 219.834 55.176 218.969 55.176C217.972 55.176 217.062 54.9193 216.241 54.406C215.42 53.878 214.767 53.1373 214.283 52.184C213.814 51.216 213.579 50.1013 213.579 48.84ZM222.775 48.862C222.775 47.9233 222.511 47.1827 221.983 46.64C221.47 46.0973 220.839 45.826 220.091 45.826C219.343 45.826 218.705 46.0973 218.177 46.64C217.664 47.168 217.407 47.9013 217.407 48.84C217.407 49.7787 217.664 50.5267 218.177 51.084C218.705 51.6267 219.343 51.898 220.091 51.898C220.839 51.898 221.47 51.6267 221.983 51.084C222.511 50.5413 222.775 49.8007 222.775 48.862ZM228.511 48.84C228.511 47.5787 228.745 46.4713 229.215 45.518C229.699 44.5647 230.351 43.8313 231.173 43.318C231.994 42.8047 232.911 42.548 233.923 42.548C234.729 42.548 235.463 42.7167 236.123 43.054C236.797 43.3913 237.325 43.846 237.707 44.418V38.72H241.469V55H237.707V53.24C237.355 53.8267 236.849 54.296 236.189 54.648C235.543 55 234.788 55.176 233.923 55.176C232.911 55.176 231.994 54.9193 231.173 54.406C230.351 53.878 229.699 53.1373 229.215 52.184C228.745 51.216 228.511 50.1013 228.511 48.84ZM237.707 48.862C237.707 47.9233 237.443 47.1827 236.915 46.64C236.401 46.0973 235.771 45.826 235.023 45.826C234.275 45.826 233.637 46.0973 233.109 46.64C232.595 47.168 232.339 47.9013 232.339 48.84C232.339 49.7787 232.595 50.5267 233.109 51.084C233.637 51.6267 234.275 51.898 235.023 51.898C235.771 51.898 236.401 51.6267 236.915 51.084C237.443 50.5413 237.707 49.8007 237.707 48.862ZM255.762 48.664C255.762 49.016 255.74 49.3827 255.696 49.764H247.182C247.241 50.5267 247.483 51.1133 247.908 51.524C248.348 51.92 248.884 52.118 249.514 52.118C250.453 52.118 251.106 51.722 251.472 50.93H255.476C255.271 51.7367 254.897 52.4627 254.354 53.108C253.826 53.7533 253.159 54.2593 252.352 54.626C251.546 54.9927 250.644 55.176 249.646 55.176C248.444 55.176 247.373 54.9193 246.434 54.406C245.496 53.8927 244.762 53.1593 244.234 52.206C243.706 51.2527 243.442 50.138 243.442 48.862C243.442 47.586 243.699 46.4713 244.212 45.518C244.74 44.5647 245.474 43.8313 246.412 43.318C247.351 42.8047 248.429 42.548 249.646 42.548C250.834 42.548 251.89 42.7973 252.814 43.296C253.738 43.7947 254.457 44.506 254.97 45.43C255.498 46.354 255.762 47.432 255.762 48.664ZM251.912 47.674C251.912 47.0287 251.692 46.5153 251.252 46.134C250.812 45.7527 250.262 45.562 249.602 45.562C248.972 45.562 248.436 45.7453 247.996 46.112C247.571 46.4787 247.307 46.9993 247.204 47.674H251.912ZM261.509 44.77C261.949 44.0953 262.499 43.5673 263.159 43.186C263.819 42.79 264.552 42.592 265.359 42.592V46.574H264.325C263.386 46.574 262.682 46.7793 262.213 47.19C261.743 47.586 261.509 48.29 261.509 49.302V55H257.747V42.724H261.509V44.77Z" fill="#833636"/>
<path d="M29.488 17.624L26.656 23.084V26H24.976V23.084L22.132 17.624H24.028L25.828 21.452L27.616 17.624H29.488ZM33.4089 26.108C32.7689 26.108 32.1929 25.968 31.6809 25.688C31.1689 25.4 30.7649 24.996 30.4689 24.476C30.1809 23.956 30.0369 23.356 30.0369 22.676C30.0369 21.996 30.1849 21.396 30.4809 20.876C30.7849 20.356 31.1969 19.956 31.7169 19.676C32.2369 19.388 32.8169 19.244 33.4569 19.244C34.0969 19.244 34.6769 19.388 35.1969 19.676C35.7169 19.956 36.1249 20.356 36.4209 20.876C36.7249 21.396 36.8769 21.996 36.8769 22.676C36.8769 23.356 36.7209 23.956 36.4089 24.476C36.1049 24.996 35.6889 25.4 35.1609 25.688C34.6409 25.968 34.0569 26.108 33.4089 26.108ZM33.4089 24.644C33.7129 24.644 33.9969 24.572 34.2609 24.428C34.5329 24.276 34.7489 24.052 34.9089 23.756C35.0689 23.46 35.1489 23.1 35.1489 22.676C35.1489 22.044 34.9809 21.56 34.6449 21.224C34.3169 20.88 33.9129 20.708 33.4329 20.708C32.9529 20.708 32.5489 20.88 32.2209 21.224C31.9009 21.56 31.7409 22.044 31.7409 22.676C31.7409 23.308 31.8969 23.796 32.2089 24.14C32.5289 24.476 32.9289 24.644 33.4089 24.644ZM44.3853 19.352V26H42.6933V25.16C42.4773 25.448 42.1933 25.676 41.8413 25.844C41.4973 26.004 41.1213 26.084 40.7133 26.084C40.1933 26.084 39.7333 25.976 39.3333 25.76C38.9333 25.536 38.6173 25.212 38.3853 24.788C38.1613 24.356 38.0493 23.844 38.0493 23.252V19.352H39.7293V23.012C39.7293 23.54 39.8613 23.948 40.1253 24.236C40.3893 24.516 40.7493 24.656 41.2053 24.656C41.6693 24.656 42.0333 24.516 42.2973 24.236C42.5613 23.948 42.6933 23.54 42.6933 23.012V19.352H44.3853ZM47.7228 20.384C47.9388 20.032 48.2188 19.756 48.5628 19.556C48.9148 19.356 49.3148 19.256 49.7628 19.256V21.02H49.3188C48.7908 21.02 48.3908 21.144 48.1188 21.392C47.8548 21.64 47.7228 22.072 47.7228 22.688V26H46.0428V19.352H47.7228V20.384ZM58.0738 26L56.2258 22.736H55.4338V26H53.7538V17.624H56.8978C57.5458 17.624 58.0978 17.74 58.5538 17.972C59.0098 18.196 59.3498 18.504 59.5738 18.896C59.8058 19.28 59.9218 19.712 59.9218 20.192C59.9218 20.744 59.7618 21.244 59.4418 21.692C59.1218 22.132 58.6458 22.436 58.0138 22.604L60.0178 26H58.0738ZM55.4338 21.476H56.8378C57.2938 21.476 57.6338 21.368 57.8578 21.152C58.0818 20.928 58.1938 20.62 58.1938 20.228C58.1938 19.844 58.0818 19.548 57.8578 19.34C57.6338 19.124 57.2938 19.016 56.8378 19.016H55.4338V21.476ZM61.0093 22.652C61.0093 21.98 61.1413 21.384 61.4053 20.864C61.6773 20.344 62.0413 19.944 62.4973 19.664C62.9613 19.384 63.4773 19.244 64.0453 19.244C64.5413 19.244 64.9733 19.344 65.3413 19.544C65.7173 19.744 66.0173 19.996 66.2413 20.3V19.352H67.9333V26H66.2413V25.028C66.0253 25.34 65.7253 25.6 65.3413 25.808C64.9653 26.008 64.5293 26.108 64.0333 26.108C63.4733 26.108 62.9613 25.964 62.4973 25.676C62.0413 25.388 61.6773 24.984 61.4053 24.464C61.1413 23.936 61.0093 23.332 61.0093 22.652ZM66.2413 22.676C66.2413 22.268 66.1613 21.92 66.0013 21.632C65.8413 21.336 65.6253 21.112 65.3533 20.96C65.0813 20.8 64.7893 20.72 64.4773 20.72C64.1653 20.72 63.8773 20.796 63.6133 20.948C63.3493 21.1 63.1333 21.324 62.9653 21.62C62.8053 21.908 62.7253 22.252 62.7253 22.652C62.7253 23.052 62.8053 23.404 62.9653 23.708C63.1333 24.004 63.3493 24.232 63.6133 24.392C63.8853 24.552 64.1733 24.632 64.4773 24.632C64.7893 24.632 65.0813 24.556 65.3533 24.404C65.6253 24.244 65.8413 24.02 66.0013 23.732C66.1613 23.436 66.2413 23.084 66.2413 22.676ZM73.2581 19.256C74.0501 19.256 74.6901 19.508 75.1781 20.012C75.6661 20.508 75.9101 21.204 75.9101 22.1V26H74.2301V22.328C74.2301 21.8 74.0981 21.396 73.8341 21.116C73.5701 20.828 73.2101 20.684 72.7541 20.684C72.2901 20.684 71.9221 20.828 71.6501 21.116C71.3861 21.396 71.2541 21.8 71.2541 22.328V26H69.5741V19.352H71.2541V20.18C71.4781 19.892 71.7621 19.668 72.1061 19.508C72.4581 19.34 72.8421 19.256 73.2581 19.256ZM81.4437 26L79.1877 23.168V26H77.5077V17.12H79.1877V22.172L81.4197 19.352H83.6037L80.6757 22.688L83.6277 26H81.4437Z" fill="#D18C8C"/>
</svg>
